<?xml version="1.0" encoding="UTF-8" standalone="no"?>
<svg
   xmlns:dc="http://purl.org/dc/elements/1.1/"
   xmlns:cc="http://creativecommons.org/ns#"
   xmlns:rdf="http://www.w3.org/1999/02/22-rdf-syntax-ns#"
   xmlns:svg="http://www.w3.org/2000/svg"
   xmlns="http://www.w3.org/2000/svg"
   viewBox="0 0 2886.8906 1772.473"
   height="1772.473"
   width="2886.8906"
   id="svg2"
   version="1.1">
  <metadata
     id="metadata8">
    <rdf:RDF>
      <cc:Work
         rdf:about="">
        <dc:format>image/svg+xml</dc:format>
        <dc:type
           rdf:resource="http://purl.org/dc/dcmitype/StillImage" />
        <dc:title></dc:title>
      </cc:Work>
    </rdf:RDF>
  </metadata>
  <defs
     id="defs6" />
  <path
     id="path4487"
     d="m 903.43873,1770.3997 c 10.5326,-2.7396 30.1763,-3.0525 34.75,-0.5536 1.7875,0.9766 3.25,1.9891 3.25,2.25 0,0.2609 -10.2375,0.4248 -22.75,0.3644 l -22.75,-0.11 z m 1479.40707,-6.8037 c -10.7382,-2.2764 -21.0169,-10.064 -26.2553,-19.8921 -6.0567,-11.3636 -6.0797,-10.4411 1.885,-75.726 3.9293,-32.2079 6.9527,-58.7514 6.7186,-58.9855 -0.2341,-0.2341 -5.4569,-1.3316 -11.6061,-2.4388 -26.0235,-4.686 -59.9382,-15.0767 -84.844,-25.9945 -23.7918,-10.4295 -45.3711,-23.296 -63.5488,-37.8907 l -8.7436,-7.0201 -7.5945,5.4488 c -24.9356,17.8905 -65.6835,28.9616 -99.6412,27.0723 -60.7983,-3.3826 -109.1598,-35.4401 -135.1859,-89.611 -8.7809,-18.2767 -15.5362,-41.1392 -20.975,-70.988 -7.2538,-39.8095 -8.8694,-71.5316 -6.5956,-129.5 2.0997,-53.5285 5.6997,-92.923 12.4742,-136.5036 0.5453,-3.5076 -0.9967,2.029 -19.6361,70.5036 -47.5176,174.5631 -89.5353,275.2273 -131.1174,314.1253 -11.8257,11.0624 -23.2528,16.3815 -44.2022,20.5755 -14.1882,2.8404 -35.3733,2.8025 -49.2276,-0.088 -21.3947,-4.4637 -42.9629,-14.327 -61.8337,-28.2772 -20.865,-15.4244 -45.5227,-42.8548 -60.549,-67.3576 -2.8595,-4.663 -5.5157,-8.4781 -5.9026,-8.4781 -0.3869,0 -3.7902,3.9375 -7.5628,8.75 -9.1525,11.6752 -32.5716,35.0331 -44.9635,44.8459 -53.5944,42.44 -114.8237,66.7819 -182.2886,72.4696 -17.7726,1.4983 -54.9789,0.7192 -72.2114,-1.5121 -38.5594,-4.9929 -69.3376,-14.1576 -102.5,-30.5213 -30.5348,-15.0671 -52.8354,-31.3293 -77.0087,-56.1566 -22.768,-23.384 -37.9073,-45.0873 -52.579,-75.3755 -45.79777,-94.545 -54.85377,-235.534 -22.9309,-356.9999 18.9018,-71.92095 51.7158,-132.40231 93.4558,-172.25393 35.1589,-33.56821 77.409,-54.07513 127.5628,-61.91524 16.1783,-2.52902 55.73,-2.53719 72,-0.0149 54.6886,8.47826 100.4971,29.5304 132.0459,60.68401 16.1305,15.92856 24.9455,29.76784 33.4353,52.49237 17.0047,45.51656 12.3725,91.95749 -13.3941,134.28499 -14.7691,24.2615 -41.5396,51.7463 -68.5871,70.4172 -50.7559,35.0368 -121.0098,56.7355 -193.2254,59.6798 -10.0239,0.4087 -18.5371,1.0548 -18.9181,1.4358 -0.9759,0.9758 1.3617,49.3603 3.1977,66.1898 9.9199,90.9269 37.9605,150.5639 88.4166,188.0453 57.236,42.5179 129.7209,37.7527 197.5292,-12.9857 13.349,-9.9886 35.5341,-31.5405 45.8686,-44.5596 7.0851,-8.9257 20.5143,-28.3487 24.8906,-36 l 2.5738,-4.5 -1.9004,-11 c -4.7907,-27.7299 -5.43,-40.9641 -5.4098,-112 0.024,-82.9212 1.6719,-117.2952 10.9332,-227.99996 2.4387,-29.15 4.9729,-60.875 5.6315,-70.5 1.3599,-19.87043 1.7035,-64.53259 0.5416,-70.38816 l -0.7716,-3.88816 14.8213,0.56941 c 40.0223,1.53762 81.4054,18.75145 107.3302,44.64539 27.6369,27.6039 33.3927,51.09686 33.3355,136.06158 -0.018,26.5795 -0.6556,47.8381 -2.1895,73 -10.2307,167.8154 -11.4255,220.3927 -5.5903,245.9999 4.5793,20.0959 12.6913,37.7928 21.8663,47.7026 8.467,9.1451 13.782,11.7993 23.569,11.7697 8.8794,-0.027 15.2549,-2.8245 23.047,-10.1131 22.9476,-21.4647 53.4514,-97.9877 90.4635,-226.9402 24.7887,-86.3653 55.4557,-210.32291 72.9316,-294.79353 1.9201,-9.28102 4.1854,-17.93415 5.0339,-19.22919 6.5882,-10.05481 28.2242,-7.75427 54.8121,5.82813 38.6891,19.7643 75.3991,56.38352 94.4039,94.17051 5.6009,11.13631 11.774,29.47463 13.6686,40.60518 4.3298,25.4373 2.4932,80.7925 -5.8561,176.4999 -2.7379,31.3855 -5.7046,69.645 -8.0641,104 -2.1356,31.0954 -3.0362,100.8384 -1.5365,119 3.2934,39.8858 11.8133,61.3603 28.2639,71.2393 2.9667,1.7816 7.4884,3.6305 10.0483,4.1088 8.8153,1.6468 20.6411,-1.6827 32.4472,-9.1356 l 4.1531,-2.6217 -2.3724,-7.4709 c -6.4963,-20.4569 -9.0606,-48.2464 -6.5187,-70.6443 8.2804,-72.9637 55.8119,-138.4378 125.9852,-173.5433 13.9165,-6.962 34.2056,-14.1905 49.1887,-17.5247 13.145,-2.9251 42.2592,-3.7543 52.9008,-1.5065 24.6808,5.213 35.4322,21.4302 24.6928,37.2462 -3.8095,5.6104 -3.7279,5.5639 -15.4391,8.7832 -25.2368,6.9374 -44.4218,17.8563 -61.4685,34.9838 -14.3316,14.3997 -24.6106,33.0829 -28.3317,51.4961 -2.51,12.4202 -1.6233,32.4332 1.9756,44.5896 3.4196,11.5508 10.129,25.2184 16.495,33.6018 13.3024,17.5178 36.4514,35.1911 63.5097,48.4872 13.2143,6.4933 15.1484,7.1886 15.7349,5.6571 1.3379,-3.4939 51.0183,-416.4556 50.1871,-417.1735 -0.4707,-0.4066 -8.0558,-6.0635 -16.8558,-12.5711 -54.9258,-40.61719 -103.5665,-86.38203 -137.6393,-129.50133 -37.7094,-47.72133 -61.1201,-95.837 -70.5099,-144.91836 -3.1317,-16.36968 -4.3573,-49.3879 -2.4404,-65.74737 3.6306,-30.9848 14.8106,-66.06868 29.2083,-91.65801 36.8748,-65.53841 100.4804,-110.98026 184.3345,-131.69439 24.8035,-6.12709 60.214,-10.98187 80.1013,-10.98187 3.545,0 6.4531,-0.3375 6.4623,-0.75 0.01,-0.4125 3.7898,-31.575 8.4012,-69.25 4.6113,-37.675 8.2727,-68.61853 8.1364,-68.76339 -0.1363,-0.14487 -16.8543,7.63899 -37.1511,17.29746 l -36.9033,17.56085 -6.6104,-0.32226 c -7.7683,-0.37871 -12.622,-3.36769 -15.8988,-9.79075 -4.2285,-8.28849 -4.1942,-8.3984 22.6254,-72.57652 13.5389,-32.39796 24.8445,-59.70497 25.1236,-60.68223 0.3754,-1.31424 -9.9307,-12.26347 -39.5864,-42.05668 -26.6066,-26.73 -40.6085,-41.51144 -41.6237,-43.94104 -3.38,-8.0897 -0.9084,-18.07358 5.7111,-23.069305 6.6494,-5.018309 6.7621,-5.015773 61.578,1.386075 27.8746,3.25543 51.8578,6.12928 53.2959,6.38632 2.4725,0.44194 4.3975,-2.25038 35.3952,-49.504516 18.0293,-27.484529 34.2843,-51.292167 36.1222,-52.905857 4.6343,-4.06892998 10.4086,-5.49653998 16.2718,-4.02292998 5.3711,1.34994998 10.5265,4.98885998 12.4765,8.80646698 0.758,1.484069 10.2849,27.448307 21.1709,57.698307 10.886,30.25 20.0906,55.352779 20.4547,55.783949 0.364,0.43116 23.5741,3.47119 51.5779,6.75561 28.0039,3.28441 52.2661,6.23529 53.9161,6.55749 8.4491,1.64991 14.7857,9.7677 14.7857,18.94195 0,5.56537 -1.1901,8.51717 -5.1579,12.79256 -1.4453,1.55736 -23.8688,16.07808 -49.8301,32.26826 -25.9612,16.19017 -47.3857,29.76597 -47.61,30.16843 -0.2243,0.40246 4.2682,29.08175 9.9833,63.73175 6.4942,39.37382 10.2478,64.77212 10.0092,67.72542 -0.9578,11.85239 -13.9073,20.13684 -25.5411,16.33992 -1.2985,-0.42379 -16.9288,-12.41916 -34.7339,-26.65638 -28.7645,-23.00051 -32.4255,-25.63634 -32.8444,-23.6474 -0.793,3.76425 -16.6626,135.97384 -16.3517,136.22494 0.16,0.12918 3.6659,1.03699 7.7909,2.01735 29.1116,6.91878 68.6297,23.49068 94.5931,39.66758 26.558,16.54741 54.1802,41.42817 68.6409,61.82857 13.2282,18.66148 23.481,42.62814 27.4691,64.21085 2.0945,11.33496 2.3209,38.72649 0.4115,49.78915 -3.2256,18.68807 -9.6268,39.36309 -15.912,51.39396 -12.8916,24.67626 -45.5155,37.2616 -91.2026,35.18331 -12.4899,-0.56816 -38.7093,-3.36052 -48.612,-5.17717 l -3.112,-0.5709 -0.7026,-20.6646 c -2.3354,-68.68729 -13.0013,-113.27974 -35.0815,-146.67052 -5.3333,-8.06524 -16.892,-21.42224 -17.7349,-20.49408 -0.2498,0.275 -8.4206,66.2 -18.1575,146.5 -9.7368,80.3 -17.9259,147.16981 -18.1978,148.59958 -0.4534,2.38317 1.4449,4.0985 22.8019,20.60452 23.4418,18.11728 46.4486,35.63915 98.8663,75.2959 67.4886,51.05873 113.8992,90.50063 138.5902,117.78053 70.3676,77.7456 101.3518,158.6577 90.7654,237.0246 -12.3493,91.4161 -76.0527,176.9917 -172.9255,232.2983 -69.8382,39.872 -161.161,62.8404 -250.0382,62.8866 l -19.0382,0.01 -6.3248,52.25 c -8.1792,67.5702 -8.2762,68.1959 -11.6386,75.0628 -7.1958,14.6957 -26.2247,24.0682 -42.0531,20.7128 z m 167.5929,-275.4847 c 32.3489,-1.3405 69.8269,-10.3583 97.4557,-23.4493 58.5211,-27.7285 83.9671,-73.5927 72.0837,-129.9249 -5.5522,-26.3201 -23.6646,-61.4618 -47.2458,-91.6667 -29.2964,-37.5255 -72.7148,-79.2544 -123.9788,-119.1548 -19.2247,-14.9632 -41.786,-31.3582 -42.0513,-30.5582 -0.6254,1.8852 -47.2662,386.9059 -47.0244,388.1868 0.3099,1.6418 2.2132,2.0469 21.2609,4.525 12.9504,1.6848 43.9416,3.3585 52.5,2.8352 2.475,-0.1513 10.125,-0.5082 17,-0.7931 z m -1349,-371.2205 c 26.5483,-8.0265 53.7719,-20.4103 73.5,-33.4345 13.2447,-8.744 28.8498,-24.0199 38.7345,-37.9174 8.2399,-11.5849 18.5966,-32.1866 22.6244,-45.0047 7.1769,-22.84011 8.4899,-44.14985 3.825,-62.08261 -6.2464,-24.01239 -19.6621,-42.82024 -36.4365,-51.08129 -6.169,-3.03814 -7.4612,-3.29983 -16.2935,-3.29983 -9.3189,0 -9.846,0.12526 -18.4457,4.38379 -19.7681,9.78904 -40.1328,36.71214 -56.8181,75.11621 -17.6682,40.66643 -30.8466,90.24493 -38.6753,145.49993 -1.0909,7.7 -1.9906,14.2907 -1.9992,14.6461 -0.024,0.9753 16.9996,-2.8999 29.9844,-6.8257 z M 2479.2503,678.13418 c 8.882,-73.11495 15.9107,-133.17476 15.6192,-133.46623 -0.9581,-0.95815 -22.7446,2.71829 -31.9308,5.3883 -11.2707,3.27588 -29.2193,11.82004 -40.4293,19.24585 -11.6377,7.70911 -28.0174,24.41327 -35.003,35.69647 -11.4352,18.47029 -16.3195,35.84536 -16.3244,58.0719 -0.01,35.07894 12.5268,63.55574 45.117,102.5 11.2486,13.44166 45.1382,47.45607 46.1255,46.29537 0.3721,-0.43745 7.9437,-60.6167 16.8258,-133.73166 z M 388.93873,1661.946 c -41.7625,-2.7034 -88.3673,-10.1521 -113,-18.0604 -12.401,-3.9814 -30.4811,-12.2434 -40.3788,-18.4519 -44.6972,-28.0368 -70.7905,-74.6358 -68.798,-122.8633 1.0325,-24.9901 10.5931,-49.5295 28.9343,-74.2662 3.6163,-4.8773 5.6375,-8.5086 5.3165,-9.5514 -0.2849,-0.9253 -1.3022,-10.0074 -2.2606,-20.1824 -2.1412,-22.7308 -2.4231,-110.3828 -0.4792,-149 4.4801,-89.0028 15.5032,-251.64164 35.2046,-519.42126 4.4075,-59.90673 7.8894,-109.28769 7.7374,-109.73546 -0.3599,-1.06087 -24.6112,10.45117 -46.7762,22.20462 -55.2451,29.29482 -98.928205,59.03886 -125.940205,85.75337 l -10.4402,10.32523 -4.4028,-1.68143 c -2.4215,-0.92478 -7.6877,-3.87858 -11.7028,-6.56399 -19.3757,-12.95929 -33.8893,-36.80685 -40.0951,-65.88101 -2.47659999,-11.60315 -2.47689999,-40.03002 -5e-4,-51.38875 3.8123,-17.48645 10.8962,-31.92801 21.5057,-43.84263 9.5403,-10.71387 35.1352,-27.3676 62.5759,-40.71593 67.074105,-32.62772 148.464405,-54.18045 226.500005,-59.97875 44.2328,-3.28664 136.7584,-3.87481 173.5,-1.10292 105.8008,7.98193 176.5659,28.20937 235,67.17218 45.2643,30.18139 76.9662,63.42842 94.9916,99.62126 25.9996,52.20422 23.9867,111.46766 -5.8036,170.86188 -15.5246,30.95197 -33.9572,55.76273 -63.1206,84.96196 -39.5594,39.60795 -84.3887,70.46529 -132.8076,91.41547 -4.2572,1.842 -7.5904,3.499 -7.4071,3.68222 0.1832,0.18322 7.2663,1.4707 15.7402,2.86105 89.4639,14.67889 167.2083,48.20659 231.4071,99.79579 12.9338,10.3934 40.0897,37.496 49.7871,49.6894 12.0193,15.1129 22.2165,31.1974 30.7274,48.4677 11.5519,23.4408 17.6536,42.6704 21.577,68 2.3009,14.8548 2.3195,45.0834 0.037,59.6049 -10.0887,64.1758 -44.3605,125.2885 -101.6642,181.2849 -26.7636,26.1531 -56.9795,49.1732 -90.964,69.3014 -90.3545,53.5147 -186.8825,85.7479 -287,95.8365 -14.7947,1.4909 -73.7743,2.7365 -87.5,1.8479 z m 110.5,-93.4487 c 56.9735,-5.2825 117.7527,-30.9967 167.1503,-70.7173 32.8888,-26.4458 53.3843,-52.122 72.3654,-90.6575 17.0695,-34.6544 27.7911,-70.6083 32.6691,-109.5521 2.0228,-16.1489 1.7213,-58.6604 -0.5177,-73 -7.324,-46.9064 -23.49,-80.5232 -51.5757,-107.2504 -11.1775,-10.6367 -25.039,-19.931 -44.7295,-29.9913 -50.7883,-25.949 -99.8247,-37.8566 -162.3619,-39.4264 -32.69,-0.8206 -59.5091,1.2818 -99.7664,7.8211 -17.5353,2.8484 -19.305,3.3191 -19.6966,5.2384 -1.4621,7.1656 -8.537,204.2395 -8.537,237.7989 0,6.283 0.1846,6.9516 1.75,6.3399 4.2508,-1.6607 36.9413,-9.6556 48.8685,-11.9513 33.4017,-6.4292 65.9507,-7.8167 88.4018,-3.7686 21.1461,3.8128 38.0121,10.2221 44.8235,17.0335 6.515,6.515 8.606,11.3969 8.633,20.1562 0.02,6.4385 -0.4449,8.4907 -3.2842,14.5 -3.9403,8.3396 -8.3102,13.1602 -13.1482,14.5042 -1.9494,0.5416 -6.9842,0.9872 -11.1884,0.9902 -18.4563,0.014 -43.4611,3.9484 -60.4455,9.512 -40.8603,13.3849 -81.0228,45.5475 -99.2659,79.4936 -18.5344,34.4879 -14.8713,72.4054 9.3225,96.5 5.1737,5.1525 10.8423,9.582 15.9258,12.4446 21.2832,11.9848 51.7847,17.0255 84.6071,13.9823 z m -78.5,-591.38507 c 39.0553,-12.92082 78.7161,-33.332 123,-63.30111 23.6675,-16.01697 45.5236,-32.49234 55.1507,-41.57329 37.911,-35.76018 64.7518,-91.91629 72.9701,-152.66736 2.5214,-18.63864 2.2842,-48.8623 -0.5061,-64.5 -7.9374,-44.48246 -27.7093,-73.12992 -60.0169,-86.95813 -45.9158,-19.65279 -112.6803,-22.83808 -187.9368,-8.96633 -16.6957,3.07747 -43.161,9.35445 -43.161,10.23684 0,0.35484 2.2327,6.95472 4.9616,14.66639 13.4499,38.00858 18.3336,67.70718 21.1365,128.53315 2.1231,46.0723 0.7368,94.98478 -6.0998,215.2176 -1.6491,29.00124 -2.9983,53.46382 -2.9983,54.36129 0,2.27435 3.8904,1.4385 23.5,-5.04905 z M 1426.7525,613.62024 c -6.3241,-3.85607 -6.3932,-4.85157 -2.6989,-38.83886 1.4522,-13.359 2.4703,-24.42489 2.2627,-24.59086 -0.2077,-0.16597 -10.7276,-5.59973 -23.3776,-12.07501 -12.65,-6.47528 -24.35,-13.08055 -26,-14.67837 -2.4705,-2.39241 -3,-3.71041 -3,-7.46793 0,-3.82435 0.4938,-5.00397 3.0509,-7.28875 2.7959,-2.49819 5.219,-3.08535 29,-7.02733 14.272,-2.36575 26.0663,-4.40683 26.2095,-4.53573 0.1432,-0.12891 1.6045,-12.48203 3.2473,-27.45138 1.6428,-14.96936 3.4515,-28.08503 4.0193,-29.14593 1.2651,-2.36402 6.0657,-4.95147 9.1733,-4.94436 5.4192,0.0124 7.6653,2.96559 20.8687,27.4382 7.1049,13.16891 13.3284,24.35389 13.83,24.85552 0.5494,0.54941 10.6693,-0.72036 25.4515,-3.19346 13.4967,-2.25804 25.8797,-4.10552 27.5177,-4.10552 6.287,0 11.4299,7.69172 9.7141,14.52822 -0.3508,1.39774 -8.7702,11.30991 -18.7096,22.02703 l -18.0718,19.48567 13.3076,24.72954 c 15.0949,28.05108 15.7307,30.30356 9.9988,35.42499 -5.2218,4.66566 -7.2776,4.0879 -34.2036,-9.61229 l -24.4037,-12.41683 -17.9432,19.51502 c -20.667,22.47751 -22.3336,23.58136 -29.243,19.36842 z m 443.133,-27.95377 c -1.6679,-0.71971 -15.9477,-15.30093 -45.5349,-46.49616 l -2.7507,-2.90015 -30.4369,12.65015 c -32.4461,13.48516 -35.4035,14.2476 -41.2498,10.6344 -3.4154,-2.11082 -6.4745,-7.27748 -6.4745,-10.93503 0,-2.85577 0.856,-4.43083 18.1691,-33.43156 8.1893,-13.71771 14.7593,-25.33238 14.6,-25.81036 -0.1593,-0.47799 -9.9601,-11.027 -21.7794,-23.44225 -11.8193,-12.41526 -22.3035,-23.98886 -23.2982,-25.71911 -4.4019,-7.65713 1.6712,-17.64593 10.7285,-17.64593 2.4472,0 18.2847,2.925 35.1946,6.5 16.9099,3.575 31.0511,6.5 31.4249,6.5 0.3738,0 7.9009,-12.0375 16.7268,-26.75 8.8259,-14.7125 17.1994,-27.82715 18.6078,-29.14366 5.3745,-5.02404 15.7746,-3.38762 20.0627,3.15681 1.0338,1.57787 2.857,12.8883 5.5077,34.16786 2.1793,17.49507 4.1113,31.9581 4.2932,32.14007 0.182,0.18197 14.4905,3.29346 31.7966,6.91441 17.3061,3.62095 32.9313,7.2372 34.7225,8.03611 8.7019,3.88105 9.6312,17.64164 1.4763,21.85744 -1.5032,0.77709 -15.3331,6.65993 -30.7331,13.07298 -15.4,6.41305 -28.3979,12.05522 -28.8841,12.53816 -0.5118,0.50829 0.6538,13.22409 2.7677,30.19395 2.0086,16.12373 3.6439,31.00998 3.6342,33.08056 -0.014,2.85294 -0.8199,4.63994 -3.3298,7.37873 -2.7943,3.04911 -4.0839,3.67067 -8.25,3.97629 -2.7159,0.19923 -5.8619,-0.0364 -6.9912,-0.52371 z m -738.9638,-9.63082 c -1.6593,-0.8191 -3.6161,-2.44868 -4.3484,-3.6213 -0.7323,-1.17261 -4.6796,-11.62969 -8.7718,-23.23795 -4.0922,-11.60826 -8.159,-23.01843 -9.0374,-25.35593 l -1.5971,-4.25 -13.6142,-0.0796 c -7.4877,-0.0438 -20.2282,-0.38721 -28.3122,-0.76318 -14.4643,-0.67269 -14.7464,-0.72988 -17.7375,-3.59555 -3.7401,-3.5832 -4.7875,-8.2626 -2.7371,-12.22774 0.9796,-1.89434 8.9459,-8.09532 22.8385,-17.77765 11.7338,-8.17774 21.5079,-15.00953 21.7202,-15.18175 0.2123,-0.17222 -3.7252,-11.94049 -8.75,-26.15171 -5.0248,-14.21122 -9.136,-26.62238 -9.136,-27.58036 0,-2.62377 2.7702,-7.44911 4.9446,-8.61281 1.0582,-0.5663 3.6674,-1.02964 5.7984,-1.02964 3.4261,0 6.4999,1.90949 26.5616,16.5 12.4779,9.075 22.9547,16.5 23.2817,16.5 0.327,0 10.3413,-6.85217 22.2541,-15.22704 19.4931,-13.70396 22.0781,-15.22934 25.8439,-15.25 3.2814,-0.018 4.8433,0.6083 7.2376,2.9022 5.1687,4.95198 4.9942,6.71178 -3.3466,33.73297 -4.1664,13.49785 -7.5753,25.0072 -7.5753,25.57634 0,0.56914 10.081,8.34649 22.4021,17.28302 12.3212,8.93652 22.9847,17.33676 23.6967,18.66719 2.3313,4.35597 1.4659,9.42161 -2.1636,12.66452 l -3.2501,2.90399 -28.3426,-0.73117 c -15.5884,-0.40216 -28.3425,-0.51531 -28.3425,-0.25145 0,1.36037 -14.9007,48.67533 -15.9416,50.62039 -1.1643,2.17535 -6.5611,5.13448 -9.2763,5.08626 -0.7051,-0.0125 -2.6397,-0.69294 -4.2991,-1.51205 z m 987.4387,-152.73898 c -4.7827,-3.22301 -7.9217,-8.29507 -7.9217,-12.7998 0,-2.24233 5.2971,-19.15157 13.0325,-41.60212 12.8834,-37.39141 13.0087,-37.84035 10.9512,-39.22868 -36.3424,-24.52213 -66.8959,-46.3255 -68.7294,-49.04616 -4.5156,-6.70073 -2.3244,-15.97799 5.0679,-21.45749 2.7494,-2.03792 3.9648,-2.09917 47.0571,-2.37149 l 44.2348,-0.27954 12.8135,-37.40406 c 7.0474,-20.57224 13.6415,-38.76579 14.6537,-40.43012 3.6987,-6.08204 13.9066,-8.84365 21.2008,-5.73562 6.3979,2.72612 7.5065,5.07112 21.2062,44.85899 l 13.177,38.26989 43.9173,0.5 c 39.2936,0.44736 44.2532,0.68365 47.1067,2.24429 9.2873,5.07942 10.5754,17.70626 2.5399,24.89796 -2.0634,1.84676 -17.8626,13.03275 -35.1094,24.85775 -17.2467,11.825 -31.5629,22.02503 -31.8137,22.66674 -0.2509,0.64171 5.2515,17.74171 12.2277,38 13.6396,39.60892 14.2898,42.64653 10.456,48.84976 -4.1218,6.66925 -15.0187,9.5884 -22.1079,5.92245 -1.6603,-0.85858 -16.6004,-10.90685 -33.2003,-22.32949 -16.5999,-11.42265 -31.4049,-21.56261 -32.9,-22.53326 l -2.7184,-1.76482 -33.1889,22.84431 c -18.2539,12.56437 -34.3556,23.38651 -35.7816,24.04921 -4.4494,2.06774 -12.3609,1.58893 -16.171,-0.9787 z M 832.75393,412.92992 c -0.6517,-0.26547 -6.8892,-8.10494 -13.8613,-17.42106 -6.972,-9.31611 -13.0943,-16.93839 -13.6051,-16.93839 -0.5107,0 -9.5639,2.475 -20.1181,5.5 -10.5543,3.025 -20.1863,5.5 -21.4044,5.5 -3.6986,0 -7.7263,-4.24147 -7.7263,-8.13641 0,-2.81014 2.1035,-6.12525 12.2,-19.22715 6.71,-8.70735 12.196,-16.35014 12.1912,-16.98399 -0.01,-0.63385 -5.6299,-8.53706 -12.5,-17.5627 -9.9014,-13.00787 -12.4912,-17.06656 -12.4912,-19.57569 0,-4.0006 3.5505,-7.51406 7.5933,-7.51406 1.6304,0 11.6767,2.91273 22.3252,6.47273 10.6484,3.56001 19.7297,6.24468 20.1808,5.96593 0.451,-0.27874 5.8413,-7.12897 11.9784,-15.22273 6.1372,-8.09376 12.0552,-15.50343 13.1512,-16.46593 2.9456,-2.58681 8.3625,-2.24956 11.3166,0.70455 2.4044,2.4044 2.4547,2.78742 2.4632,18.75 0.01,8.9625 0.2793,18.54636 0.6099,21.29747 l 0.6013,5.00202 20.6385,7.09124 c 18.9379,6.50693 20.7918,7.35377 22.4992,10.2773 1.5983,2.7367 1.685,3.61043 0.6144,6.19496 -0.6854,1.65489 -1.9874,3.40551 -2.8931,3.89026 -0.9058,0.48475 -9.7316,3.19068 -19.6129,6.01318 -9.8813,2.8225 -18.7535,5.36402 -19.716,5.64781 -1.5956,0.47046 -1.75,2.39152 -1.75,21.77428 0,20.92808 -0.036,21.29208 -2.3144,23.43262 -2.1886,2.05607 -7.2505,2.80471 -10.3704,1.53376 z M 610.74853,270.40089 c -3.7454,-2.84327 -8.8348,-6.81175 -11.3098,-8.81884 -2.475,-2.00709 -6.1044,-4.8458 -8.0653,-6.30824 l -3.5653,-2.65898 -14.3051,10.47782 c -15.7255,11.51825 -18.3613,12.45827 -21.9917,7.84296 -1.1399,-1.44917 -2.0726,-3.21021 -2.0726,-3.91341 0,-0.7032 2.4083,-9.15622 5.3517,-18.78447 l 5.3516,-17.50592 -14.8516,-11.61235 c -14.6943,-11.48928 -15.5781,-12.53166 -14.8799,-17.54899 0.1148,-0.825 0.9439,-2.32184 1.8425,-3.32632 1.4909,-1.66659 3.2354,-1.79778 19.9465,-1.5 l 18.3126,0.32632 4.0268,-13 c 2.2148,-7.15 4.4984,-14.575 5.0748,-16.5 1.8177,-6.0712 3.5433,-8 7.1569,-8 1.8072,0 4.0474,0.5625 4.9783,1.25 0.9699,0.71641 3.8749,8.29344 6.8051,17.75 2.8121,9.075 5.5273,17.2875 6.0339,18.25 0.8202,1.5582 2.7206,1.75 17.3389,1.75 10.0722,0 17.3762,0.43665 18.8973,1.12972 3.3776,1.53894 5.2487,6.18319 3.7852,9.39521 -0.6101,1.33915 -7.3106,7.00654 -14.89,12.59421 -7.5793,5.58766 -13.9238,10.2774 -14.0988,10.42165 -0.175,0.14425 2.1875,8.11 5.25,17.70167 3.0625,9.59167 5.5682,18.20643 5.5682,19.14392 0,2.33275 -4.4628,6.61362 -6.8948,6.61362 -1.0921,0 -5.05,-2.32631 -8.7954,-5.16958 z"
     style="fill:#afdbf1;fill-opacity:1" />
</svg>
